<svg xmlns="http://www.w3.org/2000/svg" width="1080" height="1080" viewBox="0 0 1080 1080" role="img"><path d="M 552.834 178.503 C 550.099 179.387, 547.074 181.312, 545.523 183.155 C 542.295 186.991, 537.448 196.427, 534.559 204.500 C 532.745 209.568, 532.003 210.548, 529.779 210.809 C 524.907 211.382, 524.619 212.660, 524.264 235.346 C 523.804 264.677, 524.386 262.611, 516.221 263.842 C 512.524 264.400, 505 265.348, 499.500 265.949 C 493.979 266.552, 483.454 268.793, 476 270.950 C 468.575 273.100, 461.366 275.098, 459.980 275.391 C 452.945 276.876, 432.278 294.993, 418.692 311.584 C 413.325 318.138, 406.256 326.650, 402.983 330.500 C 398.623 335.628, 394.152 343.116, 386.266 358.500 C 380.345 370.050, 371.727 385.800, 367.114 393.500 C 356.044 411.982, 349.760 425.175, 340.087 450.241 C 330.353 475.464, 329 479.897, 329 486.559 C 329 495.444, 324.462 503.646, 311.044 519.012 C 306.487 524.230, 302.142 529.938, 301.389 531.696 C 300.071 534.768, 298.026 552.943, 298.009 561.736 C 298.001 565.628, 298.345 566.193, 302.250 568.702 C 304.587 570.204, 308.075 572.772, 310 574.409 L 313.500 577.385 314.127 571.943 C 315.460 560.381, 320.677 544, 323.026 544 C 324.279 544, 324.417 544.956, 324.462 554 C 324.492 559.930, 324.809 561.500, 325.977 561.500 C 326.789 561.500, 330.713 556.338, 334.697 550.028 C 342.515 537.647, 344.185 532.652, 345.491 517.750 C 345.865 513.487, 346.502 510, 346.907 510 C 347.312 510, 348.666 507.737, 349.916 504.971 C 351.167 502.205, 354.146 497.649, 356.538 494.847 C 358.930 492.045, 362.069 486.771, 363.514 483.126 C 368.795 469.810, 385.397 440.455, 398.083 422 C 405.408 411.346, 411.335 404.558, 430.642 384.719 L 446 368.937 446 373.332 C 446 380.457, 444.170 388.062, 440.983 394.187 C 438.363 399.221, 438 400.942, 438 408.333 C 438 413.225, 437.377 418.513, 436.513 420.964 C 435.695 423.283, 434.369 429.255, 433.568 434.235 C 432.351 441.794, 431.623 443.805, 429.165 446.396 C 423.974 451.868, 424.170 455.639, 430.030 463.038 C 431.663 465.100, 433 467.640, 433 468.681 C 433 469.723, 430.724 472.808, 427.943 475.538 C 425.162 478.267, 421.024 482.975, 418.748 486 C 412.712 494.021, 409.786 497.090, 407.228 498.084 C 405.030 498.939, 392.629 516.882, 388.155 525.682 C 385.497 530.910, 384.959 531.230, 381.097 529.884 C 376.871 528.411, 373.693 529.379, 369.083 533.544 C 364.234 537.925, 363.531 541.375, 365.449 551.395 L 366.926 559.118 360.326 568.309 C 356.696 573.364, 350.700 580.651, 347.001 584.501 C 339.337 592.480, 334.889 600.549, 329.913 615.500 C 327.101 623.949, 326.579 626.973, 326.545 635 C 326.512 642.846, 326.878 645.196, 328.646 648.500 C 331.770 654.336, 334.020 655.939, 340.877 657.214 C 353.627 659.585, 367.498 655.350, 382.500 644.505 C 401.167 631.011, 424.195 616.397, 436.834 610.023 C 449.761 603.505, 464.124 600.390, 469.062 603.033 C 474.767 606.086, 478.814 623.075, 479.655 647.500 C 480.115 660.867, 479.889 666.507, 478.596 673.892 C 477.691 679.058, 475.873 690.815, 474.554 700.020 C 472.047 717.528, 470.560 721.915, 463.781 731.803 C 455.184 744.344, 450.597 757.261, 447.024 779 C 443.429 800.866, 440.876 808.034, 425.471 839.500 C 410.213 870.668, 407.807 878.891, 411.956 885.696 C 414.274 889.498, 418.334 890.564, 427.036 889.654 C 434.422 888.882, 441.493 886.197, 449.329 881.187 C 452.723 879.017, 460.450 874.438, 466.500 871.011 C 472.550 867.584, 478.572 863.817, 479.882 862.640 C 482.969 859.867, 485.950 853.355, 485.978 849.327 C 486.015 844.007, 478.737 836.419, 470.250 832.927 C 467.363 831.740, 465 830.239, 465 829.593 C 465 828.947, 467.242 824.868, 469.982 820.528 C 472.722 816.189, 475.477 811.032, 476.103 809.069 C 477.703 804.058, 480.445 799.654, 487.354 791 C 498.727 776.753, 506.550 763.510, 512.754 748 C 514.403 743.875, 518.491 734.875, 521.837 728 C 525.182 721.125, 528.860 711.900, 530.010 707.500 C 531.160 703.100, 533.396 695.675, 534.978 691 C 536.561 686.325, 538.770 679.350, 539.888 675.500 C 541.212 670.942, 545.987 661.386, 553.574 648.112 C 567.544 623.671, 566.584 628.388, 567.895 577.742 C 568.809 542.405, 568.849 541.933, 571.273 537.742 C 572.622 535.409, 574.025 531.157, 574.392 528.293 C 574.758 525.428, 576.184 520.092, 577.561 516.434 C 579.356 511.665, 579.768 509.425, 579.016 508.520 C 578.223 507.564, 578.675 507.115, 580.873 506.675 C 586.271 505.596, 587.402 502.040, 592.966 468.667 C 599.362 430.308, 601.220 422.999, 609.025 405.500 C 612.459 397.800, 617.873 385.288, 621.055 377.696 C 627.954 361.236, 629.304 359, 632.342 359 C 636.171 359, 644.596 361.812, 664.158 369.618 C 696.027 382.335, 712.309 384.680, 761.866 383.693 C 793.702 383.058, 807.815 381.970, 817.818 379.378 C 822.741 378.102, 824.684 377.990, 826.615 378.871 C 830.516 380.648, 839.496 380.201, 845.775 377.918 C 858.634 373.240, 861.504 373.174, 862.596 377.526 C 862.926 378.841, 863.820 380.435, 864.582 381.068 C 865.685 381.983, 866.174 381.672, 866.983 379.544 C 867.543 378.073, 868 375.535, 868 373.904 C 868 369.975, 870.444 369.129, 873.500 372 C 876.697 375.003, 879.471 374.046, 878.607 370.238 C 876.599 361.384, 876.566 361.577, 880.406 359.746 C 884.740 357.680, 885.018 355.550, 881.131 354.196 C 879.553 353.645, 877.135 351.980, 875.758 350.495 C 873.591 348.158, 872.958 347.952, 871.059 348.968 C 866.197 351.570, 826.219 352.931, 812.576 350.960 C 793.790 348.244, 741.182 335.763, 718.014 328.526 C 710.047 326.037, 701.692 324, 699.446 324 C 694.391 324, 685.952 321.573, 680 318.409 C 677.525 317.092, 673.700 315.574, 671.500 315.035 C 666.675 313.852, 657.340 304.754, 641.817 286.105 L 631.500 273.710 622 273.558 C 613.547 273.424, 611.453 272.991, 603 269.628 C 597.775 267.549, 592.957 265.148, 592.293 264.291 C 590.809 262.378, 592.444 258.769, 596.502 255 C 600.307 251.467, 602.761 246.213, 603.894 239.175 C 604.432 235.838, 606.250 228.803, 607.936 223.542 C 611.614 212.060, 612.048 201.898, 609.134 195.500 C 607.185 191.219, 601.026 185.099, 596.109 182.557 C 587.442 178.075, 561.634 175.657, 552.834 178.503 M 281.056 807.090 C 268.298 809.592, 253.965 820.160, 247.777 831.627 C 237.720 850.262, 241.486 873.621, 256.922 888.344 C 276.181 906.714, 304.773 906.316, 323.747 887.414 C 338.354 872.863, 341.673 852.485, 332.526 833.500 C 323.082 813.896, 301.866 803.010, 281.056 807.090" fill="#F7F8F2" fill-rule="evenodd"/></svg>
